<svg id="Capa_1" enable-background="new 0 0 512 512" height="512" viewBox="0 0 512 512" width="512" xmlns="http://www.w3.org/2000/svg"><g><path d="m234.974 133.676-40-120c-2.723-8.167-10.366-13.676-18.974-13.676h-40c-8.608 0-16.251 5.509-18.974 13.676l-40 120c-.579 1.74-1.026 4.133-1.026 6.324v352c0 11.046 8.954 20 20 20h120c11.046 0 20-8.954 20-20v-352c0-1.875-.361-4.331-1.026-6.324zm-118.974 26.324h80v232h-80zm34.415-120h11.17l26.667 80h-64.503zm-34.415 392h80v40h-80z"/><path d="m434.974 133.676-40-120c-2.723-8.167-10.366-13.676-18.974-13.676h-40c-8.608 0-16.251 5.509-18.974 13.676l-40 120c-.579 1.74-1.026 4.133-1.026 6.324v352c0 11.046 8.954 20 20 20h120c11.046 0 20-8.954 20-20v-352c0-1.907-.355-4.314-1.026-6.324zm-118.974 26.324h80v232h-80zm34.415-120h11.17l26.667 80h-64.503zm-34.415 392h80v40h-80z"/></g></svg>