<?xml version="1.0" encoding="iso-8859-1"?>
<!-- Generator: Adobe Illustrator 19.0.0, SVG Export Plug-In . SVG Version: 6.00 Build 0)  -->
<svg version="1.1" id="Layer_1" xmlns="http://www.w3.org/2000/svg" xmlns:xlink="http://www.w3.org/1999/xlink" x="0px" y="0px"
	 viewBox="0 0 512 512" style="enable-background:new 0 0 512 512;" xml:space="preserve">
<g>
	<g>
		<path d="M483.265,51.2H28.735C12.89,51.2,0,64.091,0,79.935V330.71c0,15.844,12.89,28.735,28.735,28.735H228.31v10.015
			c-37.954,4.688-74.083,19.875-74.083,44.842c0,26.508,43.753,46.498,101.773,46.498s101.773-19.99,101.773-46.498
			c0-24.967-36.129-40.152-74.083-44.842v-10.015h199.576c15.845,0,28.735-12.891,28.735-28.735V79.935
			C512,64.091,499.11,51.2,483.265,51.2z M325.251,396.856c10.707,5.392,16.849,11.751,16.849,17.446
			c0,12.871-32.755,30.824-86.1,30.824s-86.1-17.953-86.1-30.824c0-5.695,6.141-12.054,16.848-17.446
			c10.747-5.413,25.283-9.443,41.561-11.595v18.592c0,10.082,8.203,18.286,18.286,18.286h18.808
			c10.082,0,18.286-8.204,18.286-18.286v-18.592C299.967,387.414,314.504,391.444,325.251,396.856z M243.984,403.853v-44.408h24.033
			v44.408c0,1.441-1.172,2.612-2.612,2.612h-18.808C245.156,406.465,243.984,405.294,243.984,403.853z M496.327,330.71
			c0,7.203-5.859,13.061-13.061,13.061H28.735c-7.202,0-13.061-5.859-13.061-13.061V79.935c0-7.202,5.859-13.061,13.061-13.061
			h454.531c7.202,0,13.061,5.859,13.061,13.061V330.71z"/>
	</g>
</g>
<g>
	<g>
		<path d="M31.347,82.547v235.102h449.306V82.547H31.347z M464.98,301.976H47.02V98.22H464.98V301.976z"/>
	</g>
</g>
<g>
</g>
<g>
</g>
<g>
</g>
<g>
</g>
<g>
</g>
<g>
</g>
<g>
</g>
<g>
</g>
<g>
</g>
<g>
</g>
<g>
</g>
<g>
</g>
<g>
</g>
<g>
</g>
<g>
</g>
</svg>
