<?xml version="1.0" encoding="UTF-8"?>
<svg xmlns="http://www.w3.org/2000/svg" id="Layer_1" data-name="Layer 1" viewBox="0 0 512 512" width="512" height="512"><path d="M186.806,142.639a5.887,5.887,0,0,0,2.135.4,5.8,5.8,0,0,0,4.443-1.782L213.665,119h84.719l20.909,22.317A6.269,6.269,0,0,0,330,137.039V118.611c10-.036,18-8.411,18-18.7V34.974C348,24.663,339.935,16,329.624,16H182.376C172.066,16,164,24.663,164,34.974V99.912c0,10.31,8.066,19.088,18.376,19.088H183v18.039A5.967,5.967,0,0,0,186.806,142.639ZM182.376,107c-3.693,0-6.376-3.395-6.376-7.088V34.974C176,31.28,178.683,28,182.376,28H329.624c3.694,0,6.376,3.28,6.376,6.974V99.912c0,3.693-2.682,7.088-6.376,7.088h-5.935A5.42,5.42,0,0,0,318,112.611v9.152l-12.448-13.041A6.18,6.18,0,0,0,301,107H211a5.745,5.745,0,0,0-4.413,1.782L195,121.452v-8.841c0-3.314-2.764-5.611-6.077-5.611Z"/><path d="M315.27,84H275.337a6,6,0,0,0,0,12H315.27a6,6,0,0,0,0-12Z"/><path d="M253.63,84H238.911a6,6,0,0,0,0,12H253.63a6,6,0,0,0,0-12Z"/><path d="M196.731,96h21.123a6,6,0,1,0,0-12H196.731a6,6,0,0,0,0,12Z"/><path d="M281.236,66a6,6,0,0,0,6,6H315.27a6,6,0,0,0,0-12H287.236A6,6,0,0,0,281.236,66Z"/><path d="M196.731,72H264.64a6,6,0,0,0,0-12H196.731a6,6,0,0,0,0,12Z"/><path d="M302.306,47H315.27a6,6,0,0,0,0-12H302.306a6,6,0,0,0,0,12Z"/><path d="M232.538,47h48.539a6,6,0,0,0,0-12H232.538a6,6,0,0,0,0,12Z"/><path d="M196.731,47h14.7a6,6,0,0,0,0-12h-14.7a6,6,0,0,0,0,12Z"/><path d="M259.014,289.185A15.486,15.486,0,1,0,274.5,304.671,15.5,15.5,0,0,0,259.014,289.185Zm0,18.971a3.486,3.486,0,1,1,3.486-3.485A3.489,3.489,0,0,1,259.014,308.156Z"/><path d="M501,374h-8V300.058a43.71,43.71,0,0,0-2.844-15.965c-.194-.486-.354-.967-.567-1.448a43.157,43.157,0,0,0-25.5-23.084l-5.657-1.933A200.2,200.2,0,0,0,421,248.542V238.436a39.921,39.921,0,0,0,5.378-4.3,50.941,50.941,0,0,0,15.963-30.552,17.486,17.486,0,0,0,12.267-21.043,14.763,14.763,0,0,0-10.035-10.519l.767-11.04a53.169,53.169,0,0,0-11.482-37,50.432,50.432,0,0,0-8.377-8.2A33.857,33.857,0,0,0,391.693,84h0a33.855,33.855,0,0,0-33.762,31.379A53.858,53.858,0,0,0,337.8,161l.77,11.116a14.612,14.612,0,0,0-10.092,10.483A17.489,17.489,0,0,0,340.76,203.6,52.576,52.576,0,0,0,362,238.37v10.167c-6.9,1.045-14.218,2.493-21.3,4.287A16.852,16.852,0,0,0,329.982,249H188.045a16.921,16.921,0,0,0-6.416,1.263l-1.195-.431A196.964,196.964,0,0,0,145,241.159V229.947c14-8.866,24.413-24.276,25.841-42.1a18.161,18.161,0,0,0,9.772-20.9,15.3,15.3,0,0,0-7.875-9.966l.815-11.9a56.529,56.529,0,0,0-15.236-42.889,57.673,57.673,0,0,0-84.252,0,56.523,56.523,0,0,0-15.232,42.889L59.66,157a15.288,15.288,0,0,0-7.826,9.946,18.219,18.219,0,0,0,10.023,20.886A53.393,53.393,0,0,0,88,229.935v11.233a199.856,199.856,0,0,0-35.7,8.665l-5.431,1.846a41.632,41.632,0,0,0-24.592,22.206c-.2.458-.335.92-.544,1.443A41.941,41.941,0,0,0,19,290.582V374H11a5.711,5.711,0,0,0-6,5.649v30.709A5.7,5.7,0,0,0,11,416H28v73.726A6.667,6.667,0,0,0,34.481,496H477.519A6.668,6.668,0,0,0,484,489.726V416h17a5.705,5.705,0,0,0,6-5.642V379.649A5.711,5.711,0,0,0,501,374Zm-73.407-69.7a6,6,0,0,0,3.035-4.464l4.78-36.4a193.1,193.1,0,0,1,19.186,5.526l5.594,1.932a31.17,31.17,0,0,1,18.463,16.586c.153.347.218.7.338,1A31.519,31.519,0,0,1,481,300v74H461.341c1.281-12.644-.569-27.332-4.993-37.725a6,6,0,1,0-11.041,4.7c3.786,8.893,5.307,22.153,3.969,33.023H416.332l-7.2-64.165,2.966-9.895,10.1,4.582a6,6,0,0,0,5.394-.218Zm-3.978-43.22-3.831,29.165-17.668-8.017,10.933-10.463a26.293,26.293,0,0,0,6.936-11.271C421.2,260.679,422.406,260.88,423.615,261.084ZM391.559,290.62l9.512,4.316-2.467,8.233-12.542-.2L383.9,294.1ZM378.373,263.1A14.254,14.254,0,0,1,374,252.853V244.7a51.329,51.329,0,0,0,15.634,3.082c.659.025,1.249.037,1.9.037A48.454,48.454,0,0,0,409,244.731v8.1a14.189,14.189,0,0,1-4.319,10.262l-13.154,12.625Zm8.157,51.884,11.124.176,6.6,58.844H377.972ZM391.688,96h0a21.823,21.823,0,0,1,18.925,10.9c-14.193-5.752-28.622-2.7-38.349.925A21.855,21.855,0,0,1,391.688,96Zm17.53,23.433c6.725,3.635,11.713,7.565,15.251,12.021a41.221,41.221,0,0,1,8.9,28.688l-.668,9.638c-7.6-3.97-9.968-12.724-10.079-13.152a6,6,0,0,0-5.459-4.545c-32.868-2-39.817-9.754-46.287-30.687C378.252,117.8,394.758,111.616,409.218,119.433ZM360.782,129a71.954,71.954,0,0,0,5.467,12.232A54.452,54.452,0,0,0,349.73,155.4,41.961,41.961,0,0,1,360.782,129Zm-8.469,68.892a6.1,6.1,0,0,0-6-5.892h-.859a5.386,5.386,0,0,1-5.479-5.335,5.029,5.029,0,0,1,.158-1.273c.438-1.789,2.242-1.918,3.357-1.707a6.6,6.6,0,0,0,1.11.315h.368a6.181,6.181,0,0,0,4.386-2.09,6.3,6.3,0,0,0,1.419-2.685c5.139-16.011,14.768-24.219,23.041-28.372,8.014,7.348,19.732,11.395,38.646,12.948,2.717,6.421,9.646,18.168,24.76,19.921a6.5,6.5,0,0,0,.955.278h.329a6.527,6.527,0,0,0,1.211-.337,2.709,2.709,0,0,1,3.257,1.892,5.312,5.312,0,0,1-.636,4.091,5.242,5.242,0,0,1-3.383,2.34,5.71,5.71,0,0,1-1.35.014h-.78a6.1,6.1,0,0,0-6,5.891,39.285,39.285,0,0,1-78.518,0Zm10.874,62.6a26.28,26.28,0,0,0,6.914,11.261l10.912,10.47-17.681,8.022L359.5,261.08Q361.343,260.771,363.187,260.5Zm-15.482,2.943,4.781,36.4a6,6,0,0,0,8.431,4.682l11.862-5.381,2.459,10.094L365.847,374H349.8a23.141,23.141,0,0,0,1.2-8.192v-7.427c0-2.711-1-5-4-5.744V266.16a17.471,17.471,0,0,0-.2-2.5C347.1,263.587,347.4,263.51,347.705,263.439ZM183,266.16a5.069,5.069,0,0,1,5.045-5.16H329.982A5.046,5.046,0,0,1,335,266.16V352H183ZM179,364H339v1.808A8.333,8.333,0,0,1,332.427,374H185.6a8.358,8.358,0,0,1-6.6-8.192Zm-28.228-69.076a6,6,0,0,0,3.035-4.464l4.529-34.488q7.014,1.649,13.882,3.832A17.233,17.233,0,0,0,171,266.16v86.477c-3,.744-4,3.033-4,5.744v7.427A23.192,23.192,0,0,0,168.233,374H141.6l-9.538-74.53,2.275-9.338,11.044,5.011a6,6,0,0,0,5.393-.219Zm-4.228-41.316-3.58,27.261-16.213-7.356,10.143-9.732a25.39,25.39,0,0,0,6.613-10.66C144.521,253.273,145.533,253.439,146.544,253.608Zm-30.339,28.3,7.008,3.18-1.965,8.069-11.579.183-2.234-7.453Zm-12.224-26.793A13.231,13.231,0,0,1,100,245.506v-10.1a53.516,53.516,0,0,0,16.513,2.557A58.631,58.631,0,0,0,133,235.414v10.1a13.517,13.517,0,0,1-4.257,9.6l-12.466,11.887Zm6.7,50.21,10.01-.158L129.5,374H103.8ZM82.838,110.37a45.669,45.669,0,0,1,66.7,0,44.641,44.641,0,0,1,12.032,33.873l-1,14.372c-1.086.241-2.182.477-3.212.69l-1.207-15.026a8.006,8.006,0,0,0-7.971-7.33c-.223,0-.448.009-.673.028-.042,0-.136.013-.178.018l-3.88.415A40.147,40.147,0,0,1,106.582,120.9a6.145,6.145,0,0,0-8.352-1.478A64.543,64.543,0,0,0,72,156.922v0l-.312,1.756-.942-14.438A44.687,44.687,0,0,1,82.838,110.37ZM73.52,183.455a6,6,0,0,0-4.964-5.91,6.324,6.324,0,0,1-5.069-7.739,3.3,3.3,0,0,1,.351-.859,6,6,0,0,0,1.151.726l8.178,3.807a6,6,0,0,0,8.361-4.019l2.363-9.69a51.282,51.282,0,0,1,16.8-27.1,52.181,52.181,0,0,0,43.83,16.7l1.385,17.234a6.139,6.139,0,0,0,2.48,4.4c2.259,1.644,3.522,1.976,17.249-1.233a5.977,5.977,0,0,0,1.358-.5,9.856,9.856,0,0,0,1.262-.779,3.313,3.313,0,0,1,.662,1.314,6.321,6.321,0,0,1-5.086,7.739,6.077,6.077,0,0,0-4.975,5.986,42.671,42.671,0,0,1-85.341-.078Zm15.331,69.672a25.384,25.384,0,0,0,6.628,10.659l10.169,9.733-16.2,7.35-3.58-27.261C86.861,253.442,87.854,253.276,88.851,253.127ZM31,290.528a29.717,29.717,0,0,1,1.877-10.8c.134-.335.232-.666.377-1a29.488,29.488,0,0,1,17.471-15.711l5.335-1.846a183.943,183.943,0,0,1,18.02-5.2l4.526,34.489a6,6,0,0,0,8.425,4.683l9.376-4.254,2.743,9.15L91.742,374H64V321.632a6,6,0,0,0-12,0V374H31ZM472,484H40V416H472Zm23-80H17V386H495Z"/><path d="M61.468,442h4.713a6,6,0,0,0,0-12H61.468a6,6,0,0,0,0,12Z"/><path d="M88.706,442h64.178a6,6,0,1,0,0-12H88.706a6,6,0,0,0,0,12Z"/></svg>
