<svg id="Layer_1" enable-background="new 0 0 128 128" height="512" viewBox="0 0 128 128" width="512" xmlns="http://www.w3.org/2000/svg"><path d="m107.2 39.3-42.4-21.9c-.5-.3-1.1-.3-1.6 0l-42.2 21.8c-.1.1-1.1.4-1.1 1.6v46.2c0 .6.3 1.2.9 1.5 0 0 41.1 21.2 42.4 21.9.5.3 1 .3 1.6 0 2.4-1.2 42.3-21.8 42.3-21.8.1-.1 1-.4 1-1.6v-46.1c0-.7-.4-1.3-.9-1.6zm-24.9 15.9 7.2-3.7v14.7l-7.4 4zm-33.4-26.4 38.5 19.9c-.1.1-7.2 3.7-6.9 3.5l-38.4-19.9zm15.1-7.8 38.5 19.9-11.3 5.8-38.5-19.9zm-25.7 13.3 38.5 19.9c-1.3.7 4.7-2.4-12.7 6.5l-38.5-19.9zm-14.9 9.3c13.3 6.9 25.5 13.2 38.9 20.1v42.5l-38.9-20.1zm81.2 42.5-38.9 20.1v-42.5l13-6.7-.2 16.1c0 1.3 1.4 2.2 2.6 1.6l10.9-5.9c.6-.3.9-.9.9-1.5v-17.6l11.6-6z"/></svg>